#define octopusCoffee_width 64
#define octopusCoffee_height 128
static char octopusCoffee_bits[] = {
  0x00, 0x00, 0x00, 0x00, 0x00, 0x00, 0x00, 0x00, 0x00, 0x00, 0x00, 0x00, 
  0x00, 0x00, 0x00, 0x00, 0x00, 0x00, 0x00, 0x00, 0x00, 0x00, 0x00, 0x00, 
  0x00, 0x00, 0x00, 0x00, 0x00, 0x00, 0x00, 0x00, 0x00, 0x00, 0x00, 0x00, 
  0x00, 0x00, 0x00, 0x00, 0x00, 0x00, 0x00, 0x00, 0x00, 0x00, 0x00, 0x00, 
  0x00, 0x00, 0x00, 0x00, 0x00, 0x00, 0x00, 0x00, 0x00, 0x00, 0x00, 0x00, 
  0x00, 0x00, 0x00, 0x00, 0x00, 0x00, 0x00, 0x00, 0x00, 0x00, 0x00, 0x00, 
  0x00, 0x00, 0x00, 0x00, 0x00, 0x00, 0x00, 0x00, 0x00, 0x00, 0x00, 0x00, 
  0x00, 0x00, 0x00, 0x00, 0x00, 0x00, 0x00, 0x00, 0x00, 0x00, 0x00, 0x00, 
  0x00, 0x00, 0x00, 0x00, 0x00, 0x00, 0x00, 0x00, 0x00, 0x00, 0x00, 0x00, 
  0x00, 0x00, 0x00, 0x00, 0x00, 0x00, 0x00, 0x00, 0x00, 0x00, 0x00, 0x00, 
  0x00, 0x00, 0x00, 0x00, 0x00, 0x00, 0x00, 0x00, 0x00, 0x00, 0x00, 0x00, 
  0x00, 0x00, 0x00, 0x00, 0x00, 0x00, 0x00, 0x00, 0x00, 0x00, 0x00, 0x00, 
  0x00, 0x00, 0x00, 0x00, 0x00, 0x00, 0x00, 0x00, 0x00, 0x00, 0x00, 0x00, 
  0x00, 0x00, 0x00, 0x00, 0x00, 0x00, 0x00, 0x00, 0x00, 0x00, 0x00, 0x00, 
  0x00, 0x00, 0x00, 0x00, 0x00, 0x00, 0x00, 0x00, 0x00, 0x00, 0x00, 0x00, 
  0x00, 0x00, 0x00, 0x00, 0x00, 0x00, 0x00, 0x00, 0x00, 0x00, 0x00, 0x00, 
  0x00, 0x00, 0x00, 0x00, 0x00, 0x00, 0x00, 0x00, 0x00, 0x00, 0x00, 0x00, 
  0x00, 0x00, 0x00, 0x00, 0x00, 0x00, 0x00, 0x00, 0x00, 0x00, 0x00, 0x00, 
  0x00, 0x00, 0x00, 0x00, 0x00, 0x00, 0x00, 0x00, 0x00, 0x00, 0x00, 0x00, 
  0x00, 0x00, 0x00, 0x00, 0x00, 0x00, 0x00, 0x00, 0x00, 0x00, 0x00, 0x00, 
  0x00, 0x00, 0x00, 0x00, 0x00, 0x00, 0x00, 0x00, 0x00, 0x00, 0x00, 0x00, 
  0x00, 0x00, 0x00, 0x00, 0x00, 0x00, 0x00, 0x00, 0x00, 0x00, 0x00, 0x00, 
  0x00, 0x00, 0x00, 0x00, 0x00, 0x00, 0x00, 0x00, 0x00, 0x00, 0x00, 0x00, 
  0x00, 0x00, 0x00, 0x00, 0x00, 0x00, 0x00, 0x00, 0x00, 0x00, 0x00, 0x00, 
  0x00, 0x00, 0x00, 0x00, 0x00, 0x00, 0x00, 0x00, 0x00, 0x00, 0x00, 0x00, 
  0x00, 0x00, 0x00, 0x00, 0x00, 0x00, 0x00, 0x00, 0x00, 0x00, 0x00, 0x00, 
  0x00, 0x00, 0x00, 0x00, 0x00, 0x00, 0x00, 0x00, 0x00, 0x00, 0x00, 0x00, 
  0x00, 0x00, 0x00, 0x00, 0x00, 0x00, 0x00, 0x00, 0x00, 0x00, 0x00, 0x00, 
  0x00, 0x00, 0x00, 0x00, 0x00, 0x00, 0x00, 0x00, 0x00, 0x00, 0x00, 0x00, 
  0x00, 0x00, 0x00, 0x00, 0x00, 0x00, 0x00, 0x00, 0x00, 0x00, 0x00, 0x00, 
  0x00, 0x00, 0x00, 0x00, 0x00, 0x00, 0x00, 0x00, 0x00, 0x00, 0x00, 0x00, 
  0x00, 0x00, 0x00, 0x00, 0x00, 0x00, 0x00, 0x00, 0x00, 0x00, 0x00, 0x00, 
  0x00, 0x00, 0x00, 0x00, 0x00, 0x00, 0x00, 0x00, 0x00, 0x00, 0x00, 0x00, 
  0x00, 0x00, 0x00, 0x00, 0x00, 0x00, 0x00, 0x00, 0x00, 0x00, 0x00, 0x00, 
  0x00, 0x00, 0x00, 0x00, 0x00, 0x00, 0x00, 0x00, 0x00, 0x00, 0x00, 0x00, 
  0x00, 0x00, 0x00, 0x00, 0x00, 0x00, 0x00, 0x00, 0x00, 0x00, 0x00, 0x00, 
  0x00, 0x00, 0x00, 0x00, 0x00, 0x00, 0x00, 0x00, 0x00, 0x00, 0x00, 0x00, 
  0x00, 0x00, 0x00, 0x00, 0x00, 0x00, 0x00, 0x00, 0x00, 0x00, 0x00, 0x00, 
  0x00, 0x00, 0x00, 0x00, 0x00, 0x00, 0x00, 0x00, 0x00, 0x00, 0x00, 0x00, 
  0x00, 0x00, 0x00, 0x00, 0x00, 0x00, 0x00, 0x00, 0x00, 0x00, 0x00, 0x00, 
  0x00, 0x00, 0x10, 0x00, 0x00, 0x00, 0x00, 0x00, 0x00, 0x00, 0x00, 0x00, 
  0x00, 0x28, 0x00, 0x00, 0x00, 0x00, 0x20, 0x00, 0x00, 0xFF, 0x03, 0x00, 
  0x00, 0x00, 0x00, 0x00, 0xE0, 0xBD, 0x1F, 0x00, 0x00, 0x00, 0x30, 0x00, 
  0x7C, 0x00, 0x74, 0x00, 0x00, 0x00, 0x30, 0x00, 0x0E, 0x00, 0xC0, 0x03, 
  0x00, 0x00, 0x40, 0x80, 0x0B, 0x00, 0x00, 0x07, 0x00, 0x00, 0x40, 0xC0, 
  0x01, 0x00, 0x00, 0x0C, 0x00, 0x00, 0x00, 0x60, 0x00, 0x00, 0x00, 0x38, 
  0x00, 0x00, 0x30, 0x20, 0x00, 0x00, 0x00, 0x30, 0x00, 0x00, 0x20, 0x30, 
  0x00, 0x00, 0x00, 0x60, 0x00, 0x00, 0x18, 0x18, 0x00, 0x00, 0x00, 0xC0, 
  0x00, 0x00, 0x18, 0x18, 0x00, 0x00, 0x00, 0xC0, 0x00, 0x00, 0x10, 0x14, 
  0x00, 0x00, 0x00, 0xC0, 0x00, 0x00, 0x04, 0x04, 0x00, 0x00, 0x00, 0x80, 
  0x00, 0x00, 0x0C, 0x0C, 0x00, 0x00, 0x00, 0x80, 0x00, 0x00, 0x04, 0x06, 
  0x00, 0x00, 0x00, 0x00, 0x00, 0x00, 0x18, 0x06, 0x00, 0x00, 0x00, 0x80, 
  0x00, 0x00, 0x18, 0x0E, 0x00, 0x00, 0x00, 0x00, 0x00, 0x00, 0x08, 0x06, 
  0x00, 0x00, 0x00, 0x80, 0x00, 0x00, 0x44, 0x0E, 0x00, 0x00, 0x00, 0x80, 
  0x00, 0x00, 0x58, 0x06, 0x00, 0x00, 0x00, 0xC0, 0x00, 0x00, 0x58, 0x0E, 
  0x00, 0x00, 0x00, 0xC0, 0x00, 0x00, 0x24, 0x08, 0x00, 0x00, 0x00, 0xE0, 
  0x00, 0x00, 0x3C, 0x1A, 0x00, 0x07, 0x00, 0xF0, 0x00, 0x00, 0x10, 0x67, 
  0xC0, 0x0D, 0x00, 0xF8, 0x00, 0x00, 0x98, 0x27, 0xE0, 0x3B, 0x01, 0xFE, 
  0x00, 0x00, 0x18, 0x27, 0xF0, 0xB3, 0x03, 0x7F, 0x00, 0x00, 0x00, 0x67, 
  0xE0, 0xD7, 0xFF, 0x7F, 0x00, 0x00, 0xFF, 0x1F, 0xE0, 0xB3, 0xFF, 0x1F, 
  0x00, 0x00, 0xAB, 0x1E, 0x80, 0x16, 0xFF, 0x07, 0x00, 0xC0, 0x20, 0x30, 
  0x00, 0x1C, 0xFF, 0x01, 0x00, 0x70, 0xFE, 0x37, 0xC0, 0x0F, 0x07, 0x00, 
  0x00, 0xF8, 0xFF, 0x3F, 0x00, 0x07, 0x07, 0x00, 0x00, 0x6C, 0xFF, 0x37, 
  0x00, 0x00, 0x07, 0x04, 0x00, 0x6C, 0xFC, 0x21, 0x00, 0x00, 0x07, 0x0E, 
  0x00, 0xE8, 0x00, 0x30, 0x00, 0x00, 0x0E, 0x07, 0x80, 0xD9, 0x01, 0x38, 
  0x00, 0x00, 0x9E, 0x03, 0xE0, 0x33, 0x03, 0x18, 0x00, 0x00, 0xBC, 0x43, 
  0x30, 0xCC, 0x07, 0x1E, 0x00, 0x00, 0xF8, 0xC2, 0x18, 0x3D, 0xFE, 0x07, 
  0x00, 0x20, 0xF0, 0x7B, 0x9C, 0x66, 0xBA, 0x07, 0x00, 0x30, 0xC0, 0x3F, 
  0xCC, 0x46, 0x00, 0xC7, 0x20, 0x60, 0x00, 0xFF, 0x6C, 0xCE, 0xC0, 0xC3, 
  0x30, 0xF0, 0x00, 0x80, 0xDC, 0x9A, 0xFF, 0xC1, 0x60, 0xF0, 0x0F, 0x81, 
  0x98, 0x8E, 0xF7, 0xC3, 0xE0, 0xC0, 0xBB, 0x19, 0x38, 0x1F, 0xFF, 0xC0, 
  0xE0, 0x80, 0x7F, 0x37, 0x70, 0x3E, 0xFD, 0x60, 0xF0, 0x81, 0xFF, 0x3F, 
  0xE0, 0x28, 0x3F, 0xF8, 0xE0, 0x03, 0xF8, 0xEF, 0xC0, 0x3F, 0x1C, 0xF8, 
  0xA1, 0xFF, 0xE0, 0x70, 0x00, 0x3F, 0x00, 0xDE, 0xF0, 0xAF, 0xA1, 0x30, 
  0x00, 0xE8, 0x00, 0xDD, 0xE0, 0x07, 0xA3, 0x1F, 0x00, 0xF0, 0xC2, 0xFD, 
  0xE1, 0xE1, 0x32, 0x0F, 0x00, 0x80, 0xDF, 0xFF, 0xC1, 0xF1, 0x7E, 0xC0, 
  0x40, 0xFC, 0xEF, 0xFF, 0x43, 0xF8, 0xAF, 0xE1, 0xD8, 0xBC, 0xFE, 0xFF, 
  0x0D, 0xEC, 0xBF, 0xEF, 0x40, 0x4B, 0xFF, 0xFF, 0x1F, 0xFF, 0xFF, 0xBE, 
  0x11, 0x84, 0xED, 0xFF, 0xD3, 0xFD, 0xFF, 0xFF, 0x00, 0x03, 0x00, 0xF0, 
  0xFF, 0xBE, 0x9A, 0xB1, 0x00, 0x00, 0x80, 0xB2, 0xF7, 0xBF, 0x02, 0x00, 
  0x00, 0x00, 0x00, 0x00, 0x80, 0xFF, 0x02, 0x00, 0x00, 0x00, 0x00, 0x00, 
  0x00, 0x00, 0x00, 0x00, 0x00, 0x00, 0x00, 0x00, 0x00, 0x00, 0x00, 0x00, 
  0x00, 0x00, 0x00, 0x00, 0x00, 0x00, 0x00, 0x00, 0x00, 0x00, 0x00, 0x00, 
  0x00, 0x00, 0x00, 0x00, 0x00, 0x00, 0x00, 0x00, 0x00, 0x00, 0x00, 0x00, 
  0x00, 0x00, 0x00, 0x00, 0x00, 0x00, 0x00, 0x00, 0x00, 0x00, 0x00, 0x00, 
  0x00, 0x00, 0x00, 0x00, };
